<svg width="454" height="236" viewBox="0 0 454 236" fill="none" xmlns="http://www.w3.org/2000/svg">
<path d="M225.8 188C178.1 188 139.4 198.1 139.4 210.4C139.4 222.8 178.1 232.9 225.8 232.9C268.3 232.9 303.7 224.9 310.9 214.4C311.8 213.1 312.2 211.8 312.2 210.5C312.2 198.1 273.5 188 225.8 188ZM225.8 213.6C198.3 213.6 176.1 210.3 176.1 206.2C176.1 206.2 176.1 206.1 176.1 205.9C176.1 205.8 176.1 205.8 176.2 205.7C176.2 205.7 176.2 205.6 176.3 205.6C178.2 201.8 199.7 198.8 225.8 198.8C251 198.8 271.8 201.6 275 205.2C275.3 205.5 275.4 205.8 275.4 206.1V206.2C275.5 210.3 253.2 213.6 225.8 213.6Z" fill="#7A97F4"/>
<path d="M122.2 195.1H39C36.9 195.1 34.8 195.8 33.1 197.1L1.09998 222.2C-0.400017 223.4 0.399988 225.8 2.29999 225.8H90.2C92.4 225.8 94.6 224.9 96.2 223.4L123.1 197.4C124 196.6 123.4 195.1 122.2 195.1Z" fill="#7A97F4"/>
<path d="M452.3 195.1H369C366.9 195.1 364.8 195.8 363.1 197.1L331.1 222.2C329.6 223.4 330.4 225.8 332.3 225.8H420.2C422.4 225.8 424.6 224.9 426.2 223.4L453.1 197.4C454.1 196.6 453.5 195.1 452.3 195.1Z" fill="#7A97F4"/>
<path d="M225.8 183.9C178.1 183.9 139.4 194 139.4 206.3C139.4 218.7 178.1 228.8 225.8 228.8C268.3 228.8 303.7 220.8 310.9 210.3C311.8 209 312.2 207.7 312.2 206.4C312.2 194 273.5 183.9 225.8 183.9ZM225.8 209.5C198.3 209.5 176.1 206.2 176.1 202.1C176.1 202.1 176.1 202 176.1 201.8C176.1 201.7 176.1 201.7 176.2 201.6C176.2 201.6 176.2 201.5 176.3 201.5C178.2 197.7 199.7 194.7 225.8 194.7C251 194.7 271.8 197.5 275 201.1C275.3 201.4 275.4 201.7 275.4 202V202.1C275.5 206.2 253.2 209.5 225.8 209.5Z" fill="#FF97C9"/>
<path d="M310.9 210.3C303.7 220.8 268.4 228.8 225.8 228.8C178.1 228.8 139.4 218.7 139.4 206.3C139.4 206.3 154.4 224.4 222.8 224.4C281.6 224.5 305.3 213.4 310.9 210.3Z" fill="#F774B9"/>
<path d="M275 201.1C271.7 197.5 250.9 194.7 225.8 194.7C199.6 194.7 178.2 197.7 176.3 201.5C177.2 199.3 183.2 191.7 225.8 191.7C265 191.7 273.3 198.5 275 201.1Z" fill="#F774B9"/>
<path d="M122.9 195.1L105.4 69.9C105.2 68.6 104.1 67.6 102.7 67.6H79.1C77.5 67.6 76.2 69 76.4 70.7L82.3 118C82.5 119.9 81.1 121.5 79.2 121.5H52.2C50.5 121.5 49.1 120.2 49 118.5L46.8 70.3C46.7 68.8 45.5 67.7 44.1 67.7H22C20.4 67.7 19.2 69 19.3 70.5L22.3 152.9C22.4 155.5 24.6 157.6 27.2 157.6H87.3L92 195.3H122.9V195.1Z" fill="#273D7A"/>
<path d="M453 195.1L435.5 69.9C435.3 68.6 434.2 67.6 432.8 67.6H409.2C407.6 67.6 406.3 69 406.5 70.7L412.4 118C412.6 119.9 411.2 121.5 409.3 121.5H382.3C380.6 121.5 379.2 120.2 379.1 118.5L376.9 70.3C376.8 68.8 375.6 67.7 374.2 67.7H352.2C350.6 67.7 349.4 69 349.5 70.5L352.5 152.9C352.6 155.5 354.8 157.6 357.4 157.6H417.5L422.2 195.3H453V195.1Z" fill="#273D7A"/>
<path d="M104.7 71.2L91.5 220.8C91.3 223.6 88.9 225.8 86.1 225.8H66.3C63 225.8 60.5 222.9 60.9 219.7L69.2 149.6L9.90002 150.6C6.60002 150.6 4.10002 147.7 4.70002 144.5L4.90002 143.2L18.5 70.3C18.9 68.3 20.6 66.8 22.7 66.8H41.6C44.2 66.8 46.2 69.2 45.8 71.8L37.7 117.8C37.4 119.7 38.8 121.3 40.7 121.3H69L75.6 70.2C75.9 68.2 77.6 66.7 79.6 66.7H100.7C103 66.8 104.9 68.9 104.7 71.2Z" fill="#FF97C9"/>
<path d="M69.6001 143.2L69.1001 149.6L9.80005 150.6C6.50005 150.6 4.00004 147.7 4.60004 144.5L4.80005 143.2H69.6001V143.2Z" fill="#F774B9"/>
<path d="M104.7 71.2L91.5001 220.8C91.3001 223.6 88.9001 225.8 86.1001 225.8H83.1001L98.8001 66.8H100.7C103 66.8 104.9 68.9 104.7 71.2Z" fill="#F774B9"/>
<path d="M37.6 117.9C37.3 119.8 38.7 121.4 40.6 121.4H34.8C32.7 121.4 31 119.5 31.4 117.4L40.3 66.9H41.6C44.2 66.9 46.2 69.3 45.8 71.9L37.6 117.9Z" fill="#F774B9"/>
<path d="M434.7 71.2L421.5 220.8C421.3 223.6 418.9 225.8 416.1 225.8H396.3C393 225.8 390.5 222.9 390.9 219.7L399.2 149.6L339.9 150.6C336.6 150.6 334.1 147.7 334.7 144.5L334.9 143.2L348.5 70.3C348.9 68.3 350.6 66.8 352.7 66.8H371.6C374.2 66.8 376.2 69.2 375.8 71.8L367.7 117.8C367.4 119.7 368.8 121.3 370.7 121.3H399L405.6 70.2C405.9 68.2 407.6 66.7 409.6 66.7H430.7C433.1 66.8 435 68.9 434.7 71.2Z" fill="#FF97C9"/>
<path d="M399.7 143.2L399.2 149.6L339.9 150.6C336.6 150.6 334.1 147.7 334.7 144.5L334.9 143.2H399.7V143.2Z" fill="#F774B9"/>
<path d="M434.7 71.2L421.5 220.8C421.3 223.6 418.9 225.8 416.1 225.8H413.1L428.8 66.8H430.7C433.1 66.8 435 68.9 434.7 71.2Z" fill="#F774B9"/>
<path d="M367.7 117.9C367.4 119.8 368.8 121.4 370.7 121.4H364.9C362.8 121.4 361.1 119.5 361.5 117.4L370.4 66.9H371.7C374.3 66.9 376.3 69.3 375.9 71.9L367.7 117.9Z" fill="#F774B9"/>
<path opacity="0.28" d="M186.3 101.7L165.8 205.7C164.7 211.3 168.3 216.6 173.2 216.6H281.8C286.6 216.6 290.2 211.5 289.3 206.1L272.5 102.1C271.8 97.9 268.7 94.9 265 94.9H193.8C190.2 94.8 187.1 97.7 186.3 101.7Z" fill="#FF97C9"/>
<path d="M278.9 108.2L288.8 141.1C289 141.8 289.7 142.2 290.4 141.9C290.9 141.7 291.3 141.1 291.1 140.5L284.6 106.8C284.2 105 282.2 104 280.5 104.7C279.2 105.3 278.5 106.7 278.9 108.2Z" fill="#FEC272"/>
<path d="M260.2 120.1L266.6 145.5C266.7 146 267.2 146.2 267.6 146.1C268 146 268.2 145.6 268.1 145.2L264 119.3C263.8 118.1 262.5 117.3 261.3 117.8C260.5 118.2 260 119.1 260.2 120.1Z" fill="#FEC272"/>
<path d="M176.8 111.4L168.5 136.7C168.4 137.2 167.8 137.4 167.4 137.2C167 137 166.8 136.6 166.9 136.2L172.9 110.3C173.2 109.1 174.6 108.4 175.7 108.9C176.7 109.4 177.1 110.4 176.8 111.4Z" fill="#FEC272"/>
<path d="M193.3 119.2L182.5 166.2C182.4 166.7 181.9 166.9 181.5 166.8C181.1 166.7 180.9 166.3 181 165.9L189.5 118.4C189.7 117.2 191 116.4 192.2 116.9C193.1 117.2 193.6 118.2 193.3 119.2Z" fill="#FEC272"/>
<path d="M216.2 124.7L211 158.8C210.9 159.3 210.4 159.6 210 159.4C209.6 159.3 209.4 158.9 209.4 158.5L212.2 124.1C212.4 122.9 213.6 122.1 214.8 122.5C215.8 122.7 216.4 123.7 216.2 124.7Z" fill="#FEC272"/>
<path d="M243 124L244.3 178.1C244.3 178.6 243.9 178.9 243.4 178.9C243 178.8 242.7 178.5 242.7 178.1L239 124C239 122.7 240.1 121.8 241.3 122C242.3 122.2 243 123.1 243 124Z" fill="#FEC272"/>
<path d="M139.1 74.9C138 73.6 137.2 72.3 136.6 71L134.3 55.6L139.6 60.5L139.1 74.9Z" fill="#738DE0"/>
<path d="M288.3 80.1C288.3 80.1 285 87 277.8 94.7C268.8 104.3 253.6 115.2 231 115.2C215.1 115.2 203.3 109.9 194.9 103.5C181.7 93.5 176.5 80.7 176.5 80.7L288.3 80.1Z" fill="#273D7A"/>
<path d="M288.3 80.1C288.3 80.1 285 87 277.8 94.7C270.1 97.7 260.6 100.2 248.8 101.8C225.6 104.9 207.5 104.7 194.9 103.5C181.7 93.5 176.5 80.7 176.5 80.7L288.3 80.1Z" fill="#072359"/>
<path d="M323.5 55C323.5 55 322.9 61.3 320.9 69.1C320.6 70.2 320.1 71.5 319.3 72.7C317.2 76.1 313.2 79.8 306.7 83.3C305.6 83.9 304.3 84.5 303 85.1C302 85.6 301 86 299.9 86.5C298.4 87.1 296.9 87.7 295.3 88.3C289.7 90.3 283.1 92 275.3 93.6C274.7 93.7 274.2 93.8 273.6 93.9C272.1 94.2 270.3 94.4 268.4 94.6C260.4 95.5 249.8 96.1 238.5 96.3C236.4 96.3 234.3 96.4 232.2 96.4C221.5 96.5 210.7 96.2 201.3 95.7C199.3 95.6 197.3 95.5 195.5 95.3C190 94.9 185.2 94.3 181.7 93.6C176.6 92.6 172 91.5 167.9 90.3C166.2 89.8 164.6 89.3 163 88.8C150.6 84.7 143.1 79.7 139.2 75.1C138.6 74.4 138.1 73.8 137.7 73.1C137.3 72.5 136.9 71.8 136.7 71.2C136.4 70.5 136.1 69.9 136 69.2C135.1 65.5 134.4 61.7 134.1 58.8C133.7 55.5 133.6 53.3 133.6 53.3L228.6 60.4L323.6 55.1L323.5 55Z" fill="#99ADF9"/>
<path d="M323.4 54.8C323.4 55.5 322.9 56.4 322 57.5C319.5 60.4 313.5 64.7 303.3 68.6C302 69.1 300.6 69.6 299.1 70.1C298.4 70.3 297.7 70.6 297 70.8C295.5 71.3 293.9 71.8 292.2 72.2C286.5 73.8 279.9 75.3 272.3 76.4C270.5 76.7 268.6 77 266.6 77.2C258.2 78.3 248.8 79 238.3 79.2C236.3 79.2 234.2 79.3 232.1 79.3H232C221.3 79.3 211.4 78.8 202.5 78C200.5 77.8 198.5 77.6 196.6 77.4C186.8 76.3 178.1 74.7 170.6 72.9C168.9 72.5 167.2 72 165.6 71.6C150.7 67.5 140.9 62.4 136.4 58.2C135.5 57.4 134.8 56.5 134.3 55.8C133.7 54.9 133.4 54.1 133.4 53.3C133.4 46.2 161.4 31.1 232.5 31.1C303.6 31 323.4 49.9 323.4 54.8Z" fill="#273D7A"/>
<path d="M191.5 39.2L139.5 60.5C137.5 59.2 134.7 56.4 134.2 55.6L189.8 38.3L191.5 39.2Z" fill="#072359"/>
<path d="M323.4 54.9C323.4 55.5 322.9 56.4 322 57.5L268.6 39.2L270.3 38.4L323.4 54.9Z" fill="#072359"/>
<path d="M200.3 44.7L170.6 72.8C168.9 72.4 167.2 71.9 165.6 71.5L198.5 44.6L200.3 44.7Z" fill="#072359"/>
<path d="M216.6 48L202.5 78C200.5 77.8 198.5 77.6 196.6 77.4L214.8 47.9L216.6 48Z" fill="#072359"/>
<path d="M272.4 76.5C270.6 76.8 268.6 77.1 266.7 77.3L252.9 48L254.8 47.9L272.4 76.5Z" fill="#072359"/>
<path d="M238.3 79.3C236.3 79.3 234.2 79.4 232.1 79.4H232L234.4 49.9L236.3 49.8L238.3 79.3Z" fill="#072359"/>
<path d="M303.2 68.6C301.9 69.1 300.5 69.6 299 70.1L263.1 44.7L265 44.6L303.2 68.6Z" fill="#072359"/>
<path d="M238.4 96.1C236.3 96.1 234.2 96.2 232.1 96.2V79.3L238.3 79.2L238.4 96.1Z" fill="#738DE0"/>
<path d="M273.4 93.7C271.8 94 270.1 94.2 268.2 94.4L266.6 77.2L272.3 76.4L273.4 93.7Z" fill="#738DE0"/>
<path d="M306.6 83.2C305.5 83.8 304.2 84.4 302.9 85L299.1 70L303.2 68.6L306.6 83.2Z" fill="#738DE0"/>
<path d="M202.5 78L201.3 95.5C199.3 95.4 197.3 95.3 195.5 95.1L196.7 77.4L202.5 78Z" fill="#738DE0"/>
<path d="M170.6 72.8L167.8 90.1C166.1 89.6 164.5 89.1 162.9 88.6L165.5 71.5L170.6 72.8Z" fill="#738DE0"/>
<path d="M139.6 60.7L137.6 73C137.2 72.4 136.8 71.7 136.6 71.1C136.3 70.4 136 69.8 135.9 69.1C135 65.4 134.3 61.6 134 58.7L134.3 55.7C134.3 55.7 136 57.7 136.7 58.4C137.3 59 139.6 60.7 139.6 60.7Z" fill="#738DE0"/>
<path d="M227.8 61.8C257.237 61.8 281.1 55.0395 281.1 46.7C281.1 38.3605 257.237 31.6 227.8 31.6C198.363 31.6 174.5 38.3605 174.5 46.7C174.5 55.0395 198.363 61.8 227.8 61.8Z" fill="#072359"/>
<path d="M276.5 44.3C276.5 44.3 272.6 48.7 263 52.5C255.9 55.3 245.7 57.7 231.7 57.7C224 57.7 217.3 57 211.7 55.9C193 52.3 184.9 44.5 184.9 44.5C184.9 44.5 189 14.1 214.6 3.80003C219.8 1.70003 226 0.400024 233.2 0.400024C268.4 0.400024 276.5 44.3 276.5 44.3Z" fill="#99ADF9"/>
<path d="M211.7 55.9C193 52.3 184.9 44.5 184.9 44.5C184.9 44.5 189 14.1 214.6 3.80005C209.6 8.00005 204.7 16.4001 203.9 30.1001C203.1 40.3001 205.5 48.8 211.7 55.9Z" fill="#7A97F4"/>
<path d="M276.5 44.3C276.5 44.3 272.6 48.7 263 52.5C261.5 46.9 259.2 41.9 259.2 41.9C259.2 41.9 249.8 43.9 245.6 35C241.4 26.1 251.5 19.7 251.5 19.7C251.5 19.7 249.1 12 236.7 7.00003C224.3 2.00003 214.4 3.80003 214.4 3.80003C219.6 1.70003 225.8 0.400024 233 0.400024C268.4 0.400024 276.5 44.3 276.5 44.3Z" fill="#C2D1FF"/>
<path d="M236.2 25.5C237.691 25.5 238.9 24.336 238.9 22.9C238.9 21.4641 237.691 20.3 236.2 20.3C234.709 20.3 233.5 21.4641 233.5 22.9C233.5 24.336 234.709 25.5 236.2 25.5Z" fill="#C2D1FF"/>
<path d="M226.8 28C227.96 28 228.9 27.1046 228.9 26C228.9 24.8954 227.96 24 226.8 24C225.64 24 224.7 24.8954 224.7 26C224.7 27.1046 225.64 28 226.8 28Z" fill="#C2D1FF"/>
<path d="M233.1 41.5C235.364 41.5 237.2 39.7091 237.2 37.5C237.2 35.2909 235.364 33.5 233.1 33.5C230.836 33.5 229 35.2909 229 37.5C229 39.7091 230.836 41.5 233.1 41.5Z" fill="#C2D1FF"/>
</svg>
