<svg width="48" height="48" viewBox="0 0 48 48" fill="none" xmlns="http://www.w3.org/2000/svg">
<path d="M16 8V32C16 33.0609 16.4214 34.0783 17.1716 34.8284C17.9217 35.5786 18.9391 36 20 36H36C37.0609 36 38.0783 35.5786 38.8284 34.8284C39.5786 34.0783 40 33.0609 40 32V14.484C39.9999 13.9511 39.8934 13.4236 39.6866 12.9325C39.4799 12.4414 39.1771 11.9965 38.796 11.624L32.166 5.14C31.4187 4.40932 30.4151 4.00013 29.37 4H20C18.9391 4 17.9217 4.42143 17.1716 5.17157C16.4214 5.92172 16 6.93913 16 8V8Z" stroke="#5E627E" stroke-width="4" stroke-linecap="round" stroke-linejoin="round"/>
<path d="M32 36V40C32 41.0609 31.5786 42.0783 30.8284 42.8284C30.0783 43.5786 29.0609 44 28 44H12C10.9391 44 9.92172 43.5786 9.17157 42.8284C8.42143 42.0783 8 41.0609 8 40V18C8 16.9391 8.42143 15.9217 9.17157 15.1716C9.92172 14.4214 10.9391 14 12 14H16" stroke="#5E627E" stroke-width="4" stroke-linecap="round" stroke-linejoin="round"/>
</svg>
