<svg width="28" height="28" viewBox="0 0 28 28" fill="none" xmlns="http://www.w3.org/2000/svg">
<path d="M13.9452 2.33325C7.54254 2.33325 2.33337 7.56692 2.33337 13.9999C2.33337 20.4329 7.56704 25.6666 14 25.6666C20.433 25.6666 25.6667 20.4329 25.6667 13.9999C25.6667 7.56692 20.4085 2.33325 13.9452 2.33325ZM14 23.3333C8.85387 23.3333 4.66671 19.1461 4.66671 13.9999C4.66671 8.85375 8.82821 4.66659 13.9452 4.66659C19.1229 4.66659 23.3334 8.85375 23.3334 13.9999C23.3334 19.1461 19.1462 23.3333 14 23.3333Z" fill="#F44336"/>
<path d="M12.8334 8.16675H15.1667V16.3334H12.8334V8.16675ZM12.8334 17.5001H15.1667V19.8334H12.8334V17.5001Z" fill="#F44336"/>
</svg>
