<svg width="32" height="32" viewBox="0 0 32 32" fill="none" xmlns="http://www.w3.org/2000/svg">
<path class="close" d="M9.16397 22.8387C6.70397 21.0921 4.75731 18.8201 3.65731 17.3854C3.34971 16.9894 3.18274 16.5022 3.18274 16.0007C3.18274 15.4993 3.34971 15.0121 3.65731 14.6161C5.64797 12.0174 10.424 6.66675 16 6.66675C18.5013 6.66675 20.84 7.74275 22.84 9.16542" stroke="#5E627E" stroke-width="2" stroke-linecap="round" stroke-linejoin="round"/>
<path class="close" d="M18.84 13.1827C18.4697 12.8063 18.0286 12.5069 17.542 12.3018C17.0554 12.0967 16.5331 11.9899 16.005 11.9877C15.477 11.9855 14.9538 12.0878 14.4655 12.2889C13.9772 12.4899 13.5336 12.7856 13.1602 13.1589C12.7868 13.5322 12.491 13.9758 12.2898 14.464C12.0887 14.9522 11.9862 15.4755 11.9883 16.0035C11.9904 16.5315 12.097 17.0539 12.302 17.5405C12.507 18.0271 12.8063 18.4683 13.1826 18.8387" stroke="#5E627E" stroke-width="2" stroke-linecap="round" stroke-linejoin="round"/>
<path class="close" d="M13.3333 24.9387C14.1989 25.1963 15.0968 25.3292 16 25.3333C21.576 25.3333 26.352 19.9827 28.3426 17.384C28.6502 16.9876 28.817 16.5001 28.8167 15.9984C28.8165 15.4968 28.6492 15.0094 28.3413 14.6133C27.6417 13.7007 26.8912 12.8282 26.0933 12" stroke="#5E627E" stroke-width="2" stroke-linecap="round" stroke-linejoin="round"/>
<path class="open" d="M28.3427 14.616C28.9747 15.4426 28.9747 16.5586 28.3427 17.384C26.352 19.9826 21.576 25.3333 16 25.3333C10.424 25.3333 5.64799 19.9826 3.65733 17.384C3.34984 16.9881 3.18292 16.5012 3.18292 16C3.18292 15.4987 3.34984 15.0118 3.65733 14.616C5.64799 12.0173 10.424 6.66663 16 6.66663C21.576 6.66663 26.352 12.0173 28.3427 14.616V14.616Z" stroke="#5E627E" stroke-width="2" stroke-linecap="round" stroke-linejoin="round"/>
<path class="open" d="M16 20C18.2091 20 20 18.2091 20 16C20 13.7909 18.2091 12 16 12C13.7909 12 12 13.7909 12 16C12 18.2091 13.7909 20 16 20Z" stroke="#5E627E" stroke-width="2" stroke-linecap="round" stroke-linejoin="round"/>
<path class="slash" d="M5.33331 26.6667L26.6666 5.33337" stroke="#5E627E" stroke-width="2" stroke-linecap="round" stroke-linejoin="round"/>
</svg>
