<svg width="25" height="25" viewBox="0 0 25 25" fill="none" xmlns="http://www.w3.org/2000/svg">
<path d="M0.366086 11.9262L9.18687 0.981851C9.68855 0.359398 10.694 0.714137 10.694 1.51359V23.4736C10.694 23.9416 10.3146 24.321 9.84662 24.321H7.51637C7.04838 24.321 6.66901 23.9416 6.66901 23.4736V14.1526C6.66901 13.6846 6.28963 13.3053 5.82164 13.3053H1.02584C0.313887 13.3053 -0.0806817 12.4805 0.366086 11.9262Z" fill="#EFEFEF"/>
<path d="M23.9877 13.2015L15.1669 24.1458C14.6652 24.7682 13.6598 24.4135 13.6598 23.6141V1.65401C13.6598 1.18602 14.0392 0.806641 14.5072 0.806641H16.8374C17.3054 0.806641 17.6848 1.18602 17.6848 1.65401V10.975C17.6848 11.443 18.0641 11.8224 18.5321 11.8224H23.3279C24.0399 11.8224 24.4345 12.6472 23.9877 13.2015Z" fill="#EFEFEF"/>
</svg>
