<svg width="663" height="663" viewBox="0 0 663 663" fill="none" xmlns="http://www.w3.org/2000/svg">
<path d="M526.43 621.778L525.858 622.364L483.662 663.095H288.999C303.002 657.504 315.768 649.252 326.576 638.804L434.786 534.377C445.526 524.127 454.07 511.836 459.906 498.237C465.742 484.638 468.75 470.011 468.75 455.233C468.75 440.455 465.742 425.829 459.906 412.23C454.07 398.631 445.526 386.339 434.786 376.09C429.635 371.2 424.06 366.768 418.125 362.847C414.824 360.669 412.085 357.753 410.129 354.334C408.189 350.951 407.096 347.156 406.942 343.267C406.611 334.665 408.118 326.091 411.364 318.106C414.61 310.122 419.522 302.908 425.778 296.937L459.672 264.209C464.048 260.059 469.731 257.527 475.767 257.038C481.803 256.549 487.825 258.132 492.822 261.522C504.605 269.454 515.659 278.399 525.858 288.254C622.063 381.122 620.728 530.158 526.43 621.778ZM660.653 316.366L639.66 336.721C636.258 339.997 633.876 344.17 632.793 348.747C631.711 353.323 631.974 358.112 633.552 362.544C642.858 388.929 648.12 416.547 649.164 444.478C649.321 448.884 650.689 453.163 653.121 456.854C655.553 460.545 658.956 463.507 662.962 465.421V313.925C662.237 314.72 661.454 315.495 660.653 316.271V316.366ZM406.674 69.0886L298.445 173.535L297.854 174.102C203.576 265.647 202.24 414.682 298.445 507.645C308.654 517.489 319.707 526.433 331.481 534.377C336.48 537.763 342.501 539.344 348.536 538.855C354.571 538.366 360.253 535.837 364.631 531.69L398.525 498.962C404.78 492.991 409.691 485.776 412.937 477.792C416.184 469.808 417.691 461.234 417.362 452.632C417.2 448.739 416.108 444.939 414.175 441.546C412.207 438.135 409.471 435.221 406.178 433.033C400.236 429.122 394.659 424.69 389.517 419.79C378.777 409.543 370.234 397.252 364.398 383.655C358.563 370.058 355.555 355.433 355.555 340.656C355.555 325.88 358.563 311.255 364.398 297.658C370.234 284.06 378.777 271.77 389.517 261.522L497.708 157.095C543.187 113.186 617.35 113.451 662.466 157.871L662.962 158.363V14.0183C576.528 -16.0613 475.932 2.28913 406.674 69.0886ZM161.838 637.991C117.161 594.006 118.573 523.083 163.746 479.514L184.739 459.178C188.137 455.9 190.516 451.726 191.595 447.149C192.674 442.573 192.408 437.786 190.827 433.355C181.539 406.966 176.283 379.35 175.235 351.421C174.414 329.797 147.123 319.638 131.34 334.924L71.6055 392.605C35.7849 426.865 11.9133 471.551 3.45709 520.175C-4.9991 568.799 2.40033 618.829 24.581 663H200.16C185.827 657.287 172.797 648.783 161.838 637.991V637.991Z" fill="#1B1C24" fill-opacity="0.5"/>
</svg>
