<svg width="28" height="28" viewBox="0 0 64 64" fill="none" xmlns="http://www.w3.org/2000/svg">
<path d="M36.1173 27.8826C33.933 25.6992 30.9711 24.4727 27.8827 24.4727C24.7943 24.4727 21.8323 25.6992 19.648 27.8826L11.4107 36.1172C9.22633 38.3016 7.99919 41.2641 7.99919 44.3532C7.99919 47.4423 9.22633 50.4049 11.4107 52.5892C13.595 54.7736 16.5576 56.0007 19.6467 56.0007C22.7358 56.0007 25.6983 54.7736 27.8827 52.5892L32 48.4719" stroke="white" stroke-width="2" stroke-linecap="round" stroke-linejoin="round"/>
<path d="M27.8827 36.1174C30.0669 38.3008 33.0289 39.5273 36.1173 39.5273C39.2057 39.5273 42.1677 38.3008 44.352 36.1174L52.5893 27.8827C54.7736 25.6984 56.0008 22.7358 56.0008 19.6467C56.0008 16.5576 54.7736 13.5951 52.5893 11.4107C50.405 9.22641 47.4424 7.99927 44.3533 7.99927C41.2642 7.99927 38.3016 9.22641 36.1173 11.4107L32 15.5281" stroke="white" stroke-width="2" stroke-linecap="round" stroke-linejoin="round"/>
</svg>
