<svg width="32" height="26" viewBox="0 0 32 26" fill="#EFEFEF" xmlns="http://www.w3.org/2000/svg">
<path d="M30.525 18.665C30.655 17.96 30.655 17.24 30.525 16.535L31.815 15.79C31.965 15.705 32.03 15.53 31.98 15.365C31.645 14.285 31.07 13.305 30.32 12.495C30.205 12.37 30.02 12.34 29.87 12.425L28.58 13.17C28.035 12.705 27.41 12.345 26.735 12.105V10.615C26.735 10.445 26.615 10.295 26.45 10.26C25.335 10.01 24.2 10.02 23.14 10.26C22.975 10.295 22.855 10.445 22.855 10.615V12.105C22.18 12.345 21.555 12.705 21.01 13.17L19.72 12.425C19.575 12.34 19.385 12.37 19.27 12.495C18.52 13.305 17.945 14.285 17.61 15.365C17.56 15.53 17.63 15.705 17.775 15.79L19.065 16.535C18.935 17.24 18.935 17.96 19.065 18.665L17.775 19.41C17.625 19.495 17.56 19.67 17.61 19.835C17.945 20.915 18.52 21.89 19.27 22.705C19.385 22.83 19.57 22.86 19.72 22.775L21.01 22.03C21.555 22.495 22.18 22.855 22.855 23.095V24.585C22.855 24.755 22.975 24.905 23.14 24.94C24.255 25.19 25.39 25.18 26.45 24.94C26.615 24.905 26.735 24.755 26.735 24.585V23.095C27.41 22.855 28.035 22.495 28.58 22.03L29.87 22.775C30.015 22.86 30.205 22.83 30.32 22.705C31.07 21.895 31.645 20.915 31.98 19.835C32.03 19.67 31.96 19.495 31.815 19.41L30.525 18.665V18.665ZM24.8 20.025C23.46 20.025 22.375 18.935 22.375 17.6C22.375 16.265 23.465 15.175 24.8 15.175C26.135 15.175 27.225 16.265 27.225 17.6C27.225 18.935 26.14 20.025 24.8 20.025ZM11.2 12.8C14.735 12.8 17.6 9.935 17.6 6.4C17.6 2.865 14.735 0 11.2 0C7.665 0 4.8 2.865 4.8 6.4C4.8 9.935 7.665 12.8 11.2 12.8ZM21.26 24.125C21.145 24.065 21.03 23.995 20.92 23.93L20.525 24.16C20.225 24.33 19.885 24.425 19.545 24.425C19 24.425 18.475 24.195 18.1 23.795C17.185 22.805 16.485 21.6 16.09 20.315C15.815 19.43 16.185 18.495 16.985 18.03L17.38 17.8C17.375 17.67 17.375 17.54 17.38 17.41L16.985 17.18C16.185 16.72 15.815 15.78 16.09 14.895C16.135 14.75 16.2 14.605 16.25 14.46C16.06 14.445 15.875 14.4 15.68 14.4H14.845C13.735 14.91 12.5 15.2 11.2 15.2C9.9 15.2 8.67 14.91 7.555 14.4H6.72C3.01 14.4 0 17.41 0 21.12V23.2C0 24.525 1.075 25.6 2.4 25.6H20C20.505 25.6 20.975 25.44 21.36 25.175C21.3 24.985 21.26 24.79 21.26 24.585V24.125Z" fill="currentcolor"/>
</svg>
