<svg width="28" height="28" viewBox="0 0 28 28" fill="none" xmlns="http://www.w3.org/2000/svg">
<path d="M14 26.8332L2.91663 20.4165V7.58317L14 1.1665L25.0833 7.58317V20.4165L14 26.8332ZM14 3.86384L5.24996 8.92834V19.0713L14 24.137L22.75 19.0713V8.92834L14 3.86267V3.86384V3.86384ZM14 18.6665C12.9203 18.6667 11.8739 18.2926 11.0392 17.6078C10.2045 16.9231 9.63299 15.97 9.42215 14.9112C9.2113 13.8523 9.37414 12.753 9.88291 11.8008C10.3917 10.8485 11.2149 10.1021 12.2123 9.68872C13.2097 9.27537 14.3196 9.22065 15.3528 9.53388C16.3861 9.84711 17.2787 10.5089 17.8787 11.4065C18.4787 12.3041 18.7489 13.382 18.6432 14.4565C18.5376 15.531 18.0626 16.5356 17.2993 17.2992C16.4224 18.1715 15.2368 18.6628 14 18.6665V18.6665ZM14 11.6665C13.6935 11.6664 13.3901 11.7267 13.107 11.8439C12.8239 11.9611 12.5666 12.1329 12.3499 12.3495C12.1331 12.5661 11.9612 12.8233 11.8439 13.1064C11.7265 13.3894 11.6661 13.6928 11.666 13.9993C11.666 14.3057 11.7262 14.6091 11.8434 14.8922C11.9606 15.1753 12.1324 15.4326 12.349 15.6493C12.5657 15.8661 12.8228 16.038 13.1059 16.1553C13.389 16.2727 13.6924 16.3331 13.9988 16.3332C14.6176 16.3333 15.2112 16.0876 15.6489 15.6502C16.0866 15.2127 16.3326 14.6193 16.3327 14.0004C16.3329 13.3816 16.0872 12.788 15.6497 12.3503C15.2122 11.9126 14.6188 11.6667 14 11.6665V11.6665Z" fill="url(#paint0_linear)"/>
<defs>
<linearGradient id="paint0_linear" x1="25.0833" y1="13.9998" x2="2.91663" y2="13.9998" gradientUnits="userSpaceOnUse">
<stop stop-color="#CC208E"/>
<stop offset="1" stop-color="#6713D2"/>
</linearGradient>
</defs>
</svg>
