<svg width="56" height="56" viewBox="0 0 56 56" fill="none" xmlns="http://www.w3.org/2000/svg">
<path d="M10.5 52.5H31.5C32.428 52.4991 33.3177 52.13 33.9739 51.4739C34.63 50.8177 34.9991 49.928 35 49V43.75H31.5V49H10.5V7H31.5V12.25H35V7C34.9991 6.07203 34.63 5.18233 33.9739 4.52615C33.3177 3.86997 32.428 3.50093 31.5 3.5H10.5C9.57203 3.50093 8.68233 3.86997 8.02615 4.52615C7.36997 5.18233 7.00093 6.07203 7 7V49C7.00093 49.928 7.36997 50.8177 8.02615 51.4739C8.68233 52.13 9.57203 52.4991 10.5 52.5Z" fill="url(#logout0_linear)"/>
<path d="M36.0255 36.0255L42.301 29.75H17.5V26.25H42.301L36.0255 19.9745L38.5 17.5L49 28L38.5 38.5L36.0255 36.0255Z" fill="url(#logout0_linear)"/>
<defs>
<linearGradient id="logout0_linear" x1="49" y1="28" x2="7" y2="28" gradientUnits="userSpaceOnUse">
<stop stop-color="#CC208E"/>
<stop offset="1" stop-color="#6713D2"/>
</linearGradient>
</defs>
</svg>
