<svg width="214" height="72" viewBox="0 0 214 72" fill="none" xmlns="http://www.w3.org/2000/svg">
<mask id="path-1-inside-1" fill="white">
<path d="M2.36682 28.994C2.36682 21.3017 11.2426 2.36682 31.065 2.36682C51.1834 2.36682 59.3668 23.0769 59.3668 28.994V59.21C59.3668 61.8343 56.5088 66.2722 52.9585 66.2722C50 65.9763 47.3372 62.426 43.1952 59.7633L35.5029 67.1597C35.5029 67.1597 32.8402 69.6331 30.926 69.6331C27.8106 69.5266 25.7396 67.4556 18.0473 59.4674L12.426 65.0887C12.426 65.0887 9.46741 66.2722 5.62126 65.0887C4.646 64.7212 3.80901 64.0597 3.22601 63.1958C2.643 62.3319 2.34277 61.3082 2.36682 60.2662V28.994ZM21.0059 31.6568V37.5739V31.6568ZM40.8284 31.6568V37.5739Z"/>
</mask>
<path d="M52.9585 66.2722L52.5605 70.2523C52.6928 70.2655 52.8256 70.2722 52.9585 70.2722V66.2722ZM43.1952 59.7633L45.3583 56.3986C43.8001 55.3969 41.758 55.5961 40.4228 56.8799L43.1952 59.7633ZM35.5029 67.1597L38.2252 70.0904C38.2421 70.0748 38.2588 70.059 38.2754 70.0431L35.5029 67.1597ZM30.926 69.6331L30.7893 73.6308C30.8349 73.6323 30.8804 73.6331 30.926 73.6331L30.926 69.6331ZM18.0473 59.4674L20.9286 56.6929C20.1836 55.9193 19.1589 55.4777 18.085 55.4676C17.0111 55.4575 15.9783 55.8796 15.2189 56.639L18.0473 59.4674ZM12.426 65.0887L13.9116 68.8026C14.4145 68.6014 14.8714 68.3002 15.2544 67.9171L12.426 65.0887ZM5.62126 65.0887L4.21056 68.8317C4.28783 68.8608 4.36599 68.8876 4.44491 68.9118L5.62126 65.0887ZM2.36682 60.2662L6.36575 60.3586C6.36646 60.3278 6.36682 60.297 6.36682 60.2662L2.36682 60.2662ZM25.0059 31.6568C25.0059 29.4476 23.215 27.6568 21.0059 27.6568C18.7967 27.6568 17.0059 29.4476 17.0059 31.6568H25.0059ZM17.0059 37.5739C17.0059 39.7831 18.7967 41.5739 21.0059 41.5739C23.215 41.5739 25.0059 39.7831 25.0059 37.5739H17.0059ZM44.8284 31.6568C44.8284 29.4476 43.0375 27.6568 40.8284 27.6568C38.6192 27.6568 36.8284 29.4476 36.8284 31.6568H44.8284ZM36.8284 37.5739C36.8284 39.7831 38.6192 41.5739 40.8284 41.5739C43.0375 41.5739 44.8284 39.7831 44.8284 37.5739H36.8284ZM6.36682 28.994C6.36682 26.2674 8.12862 20.482 12.3685 15.3408C16.469 10.3685 22.5835 6.36682 31.065 6.36682V-1.63318C19.7242 -1.63318 11.4895 3.83262 6.19652 10.2509C1.04289 16.5002 -1.63318 24.0284 -1.63318 28.994H6.36682ZM31.065 6.36682C39.5613 6.36682 45.5675 10.6816 49.5922 15.9034C51.615 18.5278 53.0879 21.3304 54.0471 23.7904C55.0408 26.3389 55.3668 28.2157 55.3668 28.994H63.3668C63.3668 26.8138 62.6699 23.883 61.5005 20.8841C60.2967 17.7967 58.4663 14.3123 55.9285 11.0196C50.8319 4.40707 42.6871 -1.63318 31.065 -1.63318V6.36682ZM55.3668 28.994V59.21H63.3668V28.994H55.3668ZM55.3668 59.21C55.3668 59.1965 55.3555 59.4377 55.1663 59.897C54.9895 60.3263 54.7181 60.7951 54.3794 61.2155C53.6112 62.1688 53.0373 62.2722 52.9585 62.2722V70.2722C56.4301 70.2722 59.0604 68.1565 60.6087 66.2349C62.1434 64.3303 63.3668 61.7058 63.3668 59.21H55.3668ZM53.3566 62.292C53.2078 62.2771 52.6533 62.1044 51.0375 60.7963C49.7158 59.7264 47.6744 57.8875 45.3583 56.3986L41.0322 63.128C42.8581 64.3018 44.2191 65.5694 46.0039 67.0143C47.4946 68.221 49.7507 69.9713 52.5605 70.2523L53.3566 62.292ZM40.4228 56.8799L32.7305 64.2764L38.2754 70.0431L45.9677 62.6466L40.4228 56.8799ZM35.5029 67.1597C32.7806 64.229 32.7811 64.2286 32.7816 64.2281C32.7818 64.228 32.7822 64.2275 32.7825 64.2272C32.7832 64.2267 32.7837 64.2261 32.7843 64.2256C32.7853 64.2247 32.7862 64.2238 32.787 64.2231C32.7885 64.2217 32.7895 64.2208 32.7898 64.2205C32.7905 64.2199 32.7889 64.2214 32.785 64.2249C32.7773 64.2319 32.7608 64.2468 32.7363 64.2684C32.6871 64.3118 32.6073 64.3811 32.5032 64.4675C32.2905 64.6439 31.9989 64.8729 31.6756 65.0938C31.3414 65.3221 31.0444 65.4929 30.8165 65.5948C30.5447 65.7163 30.6093 65.6331 30.926 65.6331V73.6331C32.1998 73.6331 33.3151 73.2408 34.0809 72.8985C34.8907 72.5366 35.6182 72.089 36.1889 71.6991C36.7706 71.3016 37.2643 70.9122 37.6107 70.6249C37.7861 70.4794 37.9293 70.3554 38.0332 70.2636C38.0853 70.2176 38.1279 70.1793 38.1601 70.1501C38.1762 70.1355 38.1898 70.1231 38.2006 70.1131C38.2061 70.1081 38.2109 70.1037 38.215 70.0999C38.217 70.098 38.2189 70.0963 38.2206 70.0947C38.2215 70.0939 38.2223 70.0932 38.223 70.0925C38.2234 70.0921 38.224 70.0916 38.2242 70.0914C38.2247 70.0909 38.2252 70.0904 35.5029 67.1597ZM31.0627 65.6354C30.6778 65.6223 30.1992 65.6078 28.7366 64.4106C27.097 63.0686 24.8528 60.768 20.9286 56.6929L15.166 62.242C18.9341 66.155 21.5715 68.884 23.6694 70.6012C25.9442 72.4632 28.0589 73.5374 30.7893 73.6308L31.0627 65.6354ZM15.2189 56.639L9.59756 62.2603L15.2544 67.9171L20.8757 62.2958L15.2189 56.639ZM12.426 65.0887C10.9404 61.3748 10.9419 61.3742 10.9433 61.3737C10.9437 61.3735 10.9451 61.3729 10.9461 61.3726C10.9479 61.3718 10.9497 61.3711 10.9514 61.3704C10.955 61.369 10.9583 61.3677 10.9615 61.3665C10.9679 61.364 10.9736 61.3617 10.9787 61.3598C10.9889 61.3558 10.9966 61.3529 11.0018 61.351C11.0122 61.3472 11.0128 61.3471 11.0042 61.35C10.9867 61.3559 10.933 61.3737 10.8467 61.3973C10.6727 61.445 10.376 61.5141 9.98461 61.5616C9.20027 61.6566 8.07942 61.66 6.7976 61.2656L4.44491 68.9118C7.00925 69.7009 9.29077 69.7042 10.9473 69.5034C11.7763 69.403 12.4596 69.2502 12.9606 69.113C13.2117 69.0442 13.4191 68.9787 13.5785 68.9245C13.6583 68.8974 13.7262 68.873 13.7819 68.8524C13.8097 68.8421 13.8344 68.8327 13.8561 68.8244C13.8669 68.8202 13.8769 68.8163 13.8862 68.8127C13.8908 68.8109 13.8952 68.8091 13.8995 68.8074C13.9016 68.8066 13.9036 68.8058 13.9057 68.805C13.9067 68.8046 13.9081 68.804 13.9086 68.8038C13.9101 68.8032 13.9116 68.8026 12.426 65.0887ZM7.03196 61.3457C6.83232 61.2705 6.66099 61.1351 6.54164 60.9582L-0.0896245 65.4333C0.957039 66.9843 2.45967 68.1718 4.21056 68.8317L7.03196 61.3457ZM6.54164 60.9582C6.42228 60.7814 6.36083 60.5718 6.36575 60.3586L-1.63212 60.1739C-1.6753 62.0445 -1.13629 63.8824 -0.0896245 65.4333L6.54164 60.9582ZM6.36682 60.2662V28.994H-1.63318V60.2662H6.36682ZM17.0059 31.6568V37.5739H25.0059V31.6568H17.0059ZM25.0059 37.5739V31.6568H17.0059V37.5739H25.0059ZM36.8284 31.6568V37.5739H44.8284V31.6568H36.8284Z" fill="url(#paint0_linear)" mask="url(#path-1-inside-1)"/>
<path d="M82.5976 69.52V26.896H87.6536V32.464C88.5923 30.544 89.979 29.0507 91.8136 27.984C93.691 26.8747 95.867 26.32 98.3416 26.32C101.115 26.32 103.526 26.9813 105.574 28.304C107.664 29.584 109.264 31.44 110.374 33.872C111.526 36.2613 112.102 39.12 112.102 42.448C112.102 45.7333 111.526 48.592 110.374 51.024C109.264 53.4133 107.664 55.2693 105.574 56.592C103.526 57.9147 101.115 58.576 98.3416 58.576C95.9523 58.576 93.819 58.0427 91.9416 56.976C90.0643 55.9093 88.6776 54.4373 87.7816 52.56V69.52H82.5976ZM97.2536 54.416C100.155 54.416 102.48 53.392 104.23 51.344C105.979 49.2533 106.854 46.288 106.854 42.448C106.854 38.5653 105.979 35.6 104.23 33.552C102.48 31.504 100.155 30.48 97.2536 30.48C94.3523 30.48 92.027 31.504 90.2776 33.552C88.5283 35.6 87.6536 38.5653 87.6536 42.448C87.6536 46.288 88.5283 49.2533 90.2776 51.344C92.027 53.392 94.3523 54.416 97.2536 54.416ZM125.67 19.152V13.328H132.07V19.152H125.67ZM126.31 58V26.896H131.494V58H126.31ZM160.769 58.576C157.654 58.576 154.966 57.9147 152.705 56.592C150.444 55.2267 148.694 53.328 147.457 50.896C146.262 48.4213 145.665 45.5413 145.665 42.256C145.665 37.3067 147.009 33.424 149.697 30.608C152.385 27.7493 156.076 26.32 160.769 26.32C162.689 26.32 164.588 26.6613 166.465 27.344C168.342 28.0267 169.9 28.9867 171.137 30.224L169.345 34C168.108 32.8053 166.742 31.9307 165.249 31.376C163.798 30.8213 162.412 30.544 161.089 30.544C157.846 30.544 155.35 31.568 153.601 33.616C151.852 35.6213 150.977 38.5227 150.977 42.32C150.977 46.032 151.852 48.976 153.601 51.152C155.35 53.2853 157.846 54.352 161.089 54.352C162.412 54.352 163.798 54.0747 165.249 53.52C166.742 52.9653 168.108 52.0693 169.345 50.832L171.137 54.608C169.9 55.8453 168.321 56.8267 166.401 57.552C164.524 58.2347 162.646 58.576 160.769 58.576ZM195.913 58.576C192.884 58.576 190.26 57.9147 188.041 56.592C185.822 55.2693 184.094 53.4133 182.857 51.024C181.662 48.592 181.065 45.7333 181.065 42.448C181.065 39.1627 181.662 36.3253 182.857 33.936C184.094 31.504 185.822 29.6267 188.041 28.304C190.26 26.9813 192.884 26.32 195.913 26.32C198.9 26.32 201.502 26.9813 203.721 28.304C205.982 29.6267 207.71 31.504 208.905 33.936C210.142 36.3253 210.761 39.1627 210.761 42.448C210.761 45.7333 210.142 48.592 208.905 51.024C207.71 53.4133 205.982 55.2693 203.721 56.592C201.502 57.9147 198.9 58.576 195.913 58.576ZM195.913 54.416C198.814 54.416 201.14 53.392 202.889 51.344C204.638 49.2533 205.513 46.288 205.513 42.448C205.513 38.5653 204.638 35.6 202.889 33.552C201.14 31.504 198.814 30.48 195.913 30.48C192.969 30.48 190.622 31.504 188.873 33.552C187.166 35.6 186.313 38.5653 186.313 42.448C186.313 46.288 187.166 49.2533 188.873 51.344C190.622 53.392 192.969 54.416 195.913 54.416Z" fill="white"/>
<defs>
<linearGradient id="paint0_linear" x1="2.25012" y1="36" x2="59.6251" y2="36" gradientUnits="userSpaceOnUse">
<stop stop-color="#CC208E"/>
<stop offset="1" stop-color="#6713D2"/>
</linearGradient>
</defs>
</svg>
