<svg width="138" height="60" viewBox="0 0 138 60" fill="none" xmlns="http://www.w3.org/2000/svg">
<path d="M18.032 39.216C12.72 39.216 9.072 35.184 9.072 30.256C9.072 25.328 12.4 21.296 18.032 21.296C23.664 21.296 26.992 25.328 26.992 30.256C26.992 35.184 23.344 39.216 18.032 39.216ZM8.368 59.184V42.288C10.608 45.744 15.536 46.768 18.864 46.768C28.976 46.768 34.8 39.472 34.8 30.256C34.8 20.976 28.336 13.744 18.608 13.744C15.024 13.744 10.8 15.28 8.368 18.8L7.856 14.448H0.56V59.184H8.368ZM54.768 14.32V46H46.96V14.32H54.768ZM46.256 5.552C46.256 11.632 55.472 11.632 55.472 5.552C55.472 -0.528004 46.256 -0.528004 46.256 5.552ZM90.059 36.848C88.139 38.768 85.643 39.472 83.147 39.472C78.283 39.472 74.187 36.272 74.187 30.256C74.187 24.752 78.027 20.912 83.275 20.912C85.451 20.912 87.755 21.744 89.611 23.408L94.539 18.224C91.083 14.832 87.627 13.552 83.147 13.552C73.995 13.552 66.379 19.056 66.379 30.256C66.379 41.456 73.995 46.96 83.147 46.96C87.819 46.96 91.659 45.552 95.307 41.968L90.059 36.848ZM120.608 13.808C110.56 13.808 104.288 21.232 104.288 30.256C104.288 39.344 110.432 46.704 120.672 46.704C130.912 46.704 137.12 39.344 137.12 30.256C137.12 21.232 130.656 13.808 120.608 13.808ZM120.672 20.912C125.92 20.912 129.248 25.52 129.248 30.256C129.248 35.056 126.368 39.536 120.672 39.536C114.976 39.536 112.096 35.056 112.096 30.256C112.096 25.52 115.04 20.912 120.672 20.912Z" fill="url(#pico_linear)"/>
<defs>
<linearGradient id="pico_linear" x1="-2" y1="30" x2="140" y2="30" gradientUnits="userSpaceOnUse">
<stop stop-color="#CC208E"/>
<stop offset="1" stop-color="#6713D2"/>
</linearGradient>
</defs>
</svg>
